<?xml version="1.0" encoding="utf-8"?>
<!-- Generator: Adobe Illustrator 23.1.0, SVG Export Plug-In . SVG Version: 6.00 Build 0)  -->
<svg version="1.1" xmlns="http://www.w3.org/2000/svg" xmlns:xlink="http://www.w3.org/1999/xlink" x="0px" y="0px"
	 viewBox="0 0 800 800" style="enable-background:new 0 0 800 800;" xml:space="preserve">
<style type="text/css">
	.st0{fill:#F3F3F3;}
	.st1{fill:#FFFFFF;}
	.st2{fill:#838383;}
	.st3{fill:none;stroke:#838383;stroke-width:6;stroke-linecap:round;stroke-linejoin:round;stroke-miterlimit:10;}
</style>
<g id="暂无内容">
</g>
<g id="图层_2">
	<g>
		<g>
			<g>
				<g>
					<circle class="st0" cx="654.21" cy="170.79" r="19.78"/>
				</g>
			</g>
			<g>
				<g>
					<circle class="st0" cx="86.1" cy="622.59" r="19.78"/>
				</g>
			</g>
			<g>
				<g>
					<path class="st0" d="M207.22,684.59c-7.38,0-13.38-6-13.38-13.38c0-7.38,6-13.38,13.38-13.38c7.38,0,13.38,6,13.38,13.38
						C220.6,678.59,214.6,684.59,207.22,684.59z M207.22,664.25c-3.83,0-6.95,3.12-6.95,6.95c0,3.83,3.12,6.95,6.95,6.95
						c3.83,0,6.95-3.12,6.95-6.95C214.18,667.37,211.06,664.25,207.22,664.25z"/>
				</g>
			</g>
			<g>
				<g>
					<path class="st0" d="M585.65,111.45h-19.98V91.47c0-3.66-2.96-6.62-6.62-6.62c-3.66,0-6.62,2.96-6.62,6.62v19.98h-19.98
						c-3.66,0-6.62,2.96-6.62,6.62c0,3.66,2.96,6.62,6.62,6.62h19.98v19.98c0,3.66,2.96,6.62,6.62,6.62c3.66,0,6.62-2.96,6.62-6.62
						v-19.98h19.98c3.66,0,6.62-2.96,6.62-6.62C592.27,114.41,589.31,111.45,585.65,111.45z"/>
				</g>
			</g>
			<g>
				<g>
					<path class="st0" d="M643.23,688.48h-14.84v-14.84c0-3.04-2.47-5.51-5.51-5.51c-3.04,0-5.51,2.47-5.51,5.51v14.84h-14.84
						c-3.04,0-5.51,2.47-5.51,5.51s2.47,5.51,5.51,5.51h14.84v14.84c0,3.04,2.47,5.51,5.51,5.51c3.04,0,5.51-2.47,5.51-5.51v-14.84
						h14.84c3.04,0,5.51-2.47,5.51-5.51S646.27,688.48,643.23,688.48z"/>
				</g>
			</g>
			<g>
				<g>
					<path class="st0" d="M108.16,126.89c8.7,8.7,22.82,8.7,31.52,0l0,0c8.7-8.7,8.7-22.82,0-31.52l-6.66-6.66
						c-8.7-8.7-22.82-8.7-31.52,0h0c-8.7,8.7-8.7,22.82,0,31.52L108.16,126.89z"/>
				</g>
			</g>
			<g>
				<g>
					<path class="st0" d="M222.89,118.83c3.97,3.97,10.41,3.97,14.38,0c3.97-3.97,3.97-10.41,0-14.38l-10.01-10.01
						c-3.97-3.97-10.41-3.97-14.38,0c-3.97,3.97-3.97,10.41,0,14.38L222.89,118.83z"/>
				</g>
			</g>
			<g>
				<g>
					<path class="st0" d="M71.81,319.55c3.97,3.97,10.41,3.97,14.38,0h0c3.97-3.97,3.97-10.41,0-14.38l-10.01-10.01
						c-3.97-3.97-10.41-3.97-14.38,0c-3.97,3.97-3.97,10.41,0,14.38L71.81,319.55z"/>
				</g>
			</g>
			<g>
				<g>
					<path class="st0" d="M599.78,627.02c-3.97-3.97-10.41-3.97-14.38,0c-3.97,3.97-3.97,10.41,0,14.38l10.01,10.01
						c3.97,3.97,10.41,3.97,14.38,0c3.97-3.97,3.97-10.41,0-14.38L599.78,627.02z"/>
				</g>
			</g>
			<g>
				<g>
					<circle class="st0" cx="687.39" cy="635.51" r="32.77"/>
				</g>
			</g>
			<g>
				<g>
					<path class="st0" d="M688.04,483.55l-31.51-31.51l-19.97-21.27c-5.17-5.43-5.24-13.94-0.16-19.46l0,0
						c5.55-6.03,15.04-6.14,20.72-0.23l4.04,4.41l9.32,9.32c5.41,5.41,14.29,5.82,19.8,0.51c5.61-5.41,5.68-14.35,0.19-19.84
						l-18.63-18.63c-6.88-6.88-11.36-15.82-12.66-25.46C640.97,226,524.98,121.6,384.6,121.6c-4.79,0-9.55,0.13-14.28,0.37
						c-5.11,0.26-10.1-1.61-13.71-5.23l-19.14-19.14c-8.55-8.55-22.47-9.18-31.32-0.94c-9.29,8.65-9.48,23.19-0.59,32.09l3.34,3.34
						l10.41,10.94c6.54,6.92,5.57,18-2.08,23.68c-6.51,4.83-14.68,3.26-20.19-2.69l-20.69-20.46l-18.04-18.04
						c-3.83-3.83-10.06-4.28-14.13-0.71c-4.46,3.92-4.62,10.71-0.49,14.84l13.14,13.14l8.56,8.24c8.7,8.52,8.89,21.8,0.24,30.36l0,0
						c-8.59,8.49-22.45,8.38-30.89-0.26l-14.74-15.33l-35.31-35.31c-8.7-8.7-22.82-8.7-31.52,0h0c-8.7,8.7-8.7,22.82,0,31.52
						l25.61,25.69l8.98,8.38c8.49,8.43,8.69,22.09,0.45,30.76l0,0c-8.82,9.29-23.69,9.11-32.28-0.4l-4.96-5.44l-15.36-15.44
						c-12.62-12.62-33.2-13.4-46.16-1.12c-13.45,12.73-13.67,33.97-0.66,46.98l37.34,37.33l17.8,17.59
						c6.71,6.64,6.5,17.55-0.46,23.93l0,0c-6.58,6.03-16.76,5.75-22.99-0.63l-5.35-5.55l-8.11-8.11c-3.97-3.97-10.41-3.97-14.38,0h0
						c-5.06,4.2-3.69,10.69,0.06,14.44l17.79,17.79l36.99,36.09c6.38,6.22,6.41,16.47,0.08,22.73l0,0
						c-6.18,6.11-16.12,6.15-22.34,0.08l-17.67-17.24l-25.96-25.96c-5.41-5.41-14.29-5.82-19.8-0.51
						c-5.61,5.41-5.68,14.35-0.19,19.84l43.89,43.89c3.55,3.55,5.91,8.11,6.84,13.05c23.49,124.93,130.8,220.27,261.3,225.36
						c7.2,0.28,14.06,3.16,19.28,8.14c8.46,8.08,20.27,19.34,20.27,19.34c8.55,8.55,22.47,9.18,31.32,0.94
						c9.29-8.65,9.48-23.19,0.59-32.09l-2.26-2.26L433,659.39c-5.59-6.06-5.03-15.55,1.23-20.92l0,0
						c5.93-5.08,14.81-4.58,20.13,1.13l20.22,21.22l22.02,22.02c8.9,8.89,23.44,8.7,32.09-0.58c8.24-8.84,7.6-22.77-0.94-31.32
						l-9.5-9.5c0,0-3.02-3.11-6.89-7.09c-9.03-9.28-8.71-24.16,0.7-33.05l0.48-0.45c9.02-8.52,23.15-8.43,32.07,0.2l13.82,13.38
						l5.91,5.91c3.83,3.83,10.07,4.28,14.13,0.71c4.46-3.92,4.62-10.71,0.49-14.84l-5.15-5.15c-0.94,0.44-20.83-20.04-32.63-32.32
						c-4.75-4.94-4.56-12.79,0.41-17.5l0,0c4.95-4.69,12.77-4.47,17.45,0.48l31.03,32.82l14.15,14.15
						c12.62,12.62,33.19,13.4,46.16,1.13c13.45-12.73,13.67-33.97,0.66-46.98l-22.57-22.57l-11.4-12.43
						c-5.57-6.02-5.32-15.38,0.56-21.1v0c6.11-5.94,15.92-5.64,21.67,0.65l2.92,3.4l14.64,14.65c8.9,8.9,23.44,8.7,32.09-0.58
						C697.22,506.02,696.59,492.1,688.04,483.55z"/>
				</g>
			</g>
			<g>
				<g>
					<path class="st1" d="M415.54,202.58H400.7v-14.84c0-3.04-2.47-5.51-5.51-5.51c-3.04,0-5.51,2.47-5.51,5.51v14.84h-14.84
						c-3.04,0-5.51,2.47-5.51,5.51c0,3.04,2.47,5.51,5.51,5.51h14.84v14.84c0,3.04,2.47,5.51,5.51,5.51c3.04,0,5.51-2.47,5.51-5.51
						v-14.84h14.84c3.04,0,5.51-2.47,5.51-5.51C421.04,205.04,418.58,202.58,415.54,202.58z"/>
				</g>
			</g>
			<g>
				<g>
					<path class="st1" d="M571.29,421.12c-7.38,0-13.38-6-13.38-13.38c0-7.38,6-13.38,13.38-13.38c7.38,0,13.38,6,13.38,13.38
						C584.67,415.11,578.67,421.12,571.29,421.12z M571.29,400.78c-3.83,0-6.95,3.12-6.95,6.95c0,3.83,3.12,6.95,6.95,6.95
						c3.83,0,6.95-3.12,6.95-6.95C578.25,403.9,575.13,400.78,571.29,400.78z"/>
				</g>
			</g>
			<g>
				<g>
					<path class="st1" d="M208.64,523.15c-7.38,0-13.38-6-13.38-13.38c0-7.38,6-13.38,13.38-13.38c7.38,0,13.38,6,13.38,13.38
						C222.02,517.15,216.02,523.15,208.64,523.15z M208.64,502.82c-3.83,0-6.95,3.12-6.95,6.95c0,3.83,3.12,6.95,6.95,6.95
						c3.83,0,6.95-3.12,6.95-6.95C215.6,505.94,212.48,502.82,208.64,502.82z"/>
				</g>
			</g>
		</g>
		<g>
			<g>
				<g>
					<path class="st1" d="M529.25,582.33H491.3V395.5h37.95c15.55,0,28.16,12.61,28.16,28.16v130.51
						C557.41,569.72,544.8,582.33,529.25,582.33z"/>
				</g>
			</g>
			<g>
				<g>
					<path class="st2" d="M529.25,585.33H491.3c-1.66,0-3-1.34-3-3V395.5c0-1.66,1.34-3,3-3h37.94c17.18,0,31.16,13.98,31.16,31.16
						v130.51C560.41,571.35,546.43,585.33,529.25,585.33z M494.3,579.33h34.94c13.87,0,25.16-11.29,25.16-25.16V423.66
						c0-13.87-11.29-25.16-25.16-25.16H494.3V579.33z"/>
				</g>
			</g>
			<g>
				<g>
					<path class="st1" d="M239.69,259.08v291.71c0,17.42,14.12,31.55,31.55,31.55H535c0,0-23.35-1.13-23.35-32.39V259.21
						c0-17.41-14.11-31.53-31.53-31.55l-208.86-0.14C253.83,227.52,239.69,241.65,239.69,259.08z"/>
				</g>
			</g>
			<g>
				<g>
					<path class="st2" d="M535,585.33H271.24c-19.05,0-34.55-15.5-34.55-34.55V259.08c0-9.23,3.6-17.91,10.13-24.44
						c6.52-6.52,15.2-10.11,24.42-10.11c0.01,0,0.02,0,0.02,0l208.86,0.14c19.04,0.01,34.52,15.51,34.52,34.55v290.72
						c0,27.88,19.68,29.35,20.51,29.4c1.62,0.09,2.88,1.46,2.83,3.08S536.62,585.33,535,585.33z M271.24,230.53
						c-7.62,0-14.79,2.97-20.18,8.35c-5.4,5.39-8.37,12.56-8.37,20.19v291.71c0,15.74,12.81,28.55,28.55,28.55h249.16
						c-6.07-4.85-11.75-13.61-11.75-29.39V259.21c0-15.73-12.8-28.54-28.53-28.55l-208.86-0.14
						C271.25,230.53,271.24,230.53,271.24,230.53z"/>
				</g>
			</g>
			<g>
				<g>
					<path class="st2" d="M462.14,325.14h-172.2c-8.87,0-16.09-7.22-16.09-16.09v-0.44c0-8.87,7.22-16.09,16.09-16.09h172.2
						c8.87,0,16.09,7.22,16.09,16.09v0.44C478.23,317.92,471.01,325.14,462.14,325.14z M289.95,298.52
						c-5.56,0-10.09,4.53-10.09,10.09v0.44c0,5.56,4.53,10.09,10.09,10.09h172.2c5.56,0,10.09-4.53,10.09-10.09v-0.44
						c0-5.56-4.53-10.09-10.09-10.09H289.95z"/>
				</g>
			</g>
			<g>
				<g>
					<path class="st2" d="M462.14,390.02h-172.2c-8.87,0-16.09-7.22-16.09-16.09v-0.44c0-8.87,7.22-16.09,16.09-16.09h172.2
						c8.87,0,16.09,7.22,16.09,16.09v0.44C478.23,382.8,471.01,390.02,462.14,390.02z M289.95,363.4c-5.56,0-10.09,4.53-10.09,10.09
						v0.44c0,5.56,4.53,10.09,10.09,10.09h172.2c5.56,0,10.09-4.53,10.09-10.09v-0.44c0-5.56-4.53-10.09-10.09-10.09H289.95z"/>
				</g>
			</g>
			<g>
				<g>
					<path class="st2" d="M404.89,454.91H289.95c-8.87,0-16.09-7.22-16.09-16.09v-0.44c0-8.87,7.22-16.09,16.09-16.09h114.94
						c8.87,0,16.09,7.22,16.09,16.09v0.44C420.98,447.69,413.76,454.91,404.89,454.91z M289.95,428.29
						c-5.56,0-10.09,4.53-10.09,10.09v0.44c0,5.56,4.53,10.09,10.09,10.09h114.94c5.56,0,10.09-4.53,10.09-10.09v-0.44
						c0-5.56-4.53-10.09-10.09-10.09H289.95z"/>
				</g>
			</g>
			<g>
				<g>
					<path class="st2" d="M404.89,519.79H289.95c-8.87,0-16.09-7.22-16.09-16.09v-0.44c0-8.87,7.22-16.09,16.09-16.09h114.94
						c8.87,0,16.09,7.22,16.09,16.09v0.44C420.98,512.57,413.76,519.79,404.89,519.79z M289.95,493.17
						c-5.56,0-10.09,4.53-10.09,10.09v0.44c0,5.56,4.53,10.09,10.09,10.09h114.94c5.56,0,10.09-4.53,10.09-10.09v-0.44
						c0-5.56-4.53-10.09-10.09-10.09H289.95z"/>
				</g>
			</g>
		</g>
	</g>
</g>
<g id="图层_3">
</g>
<g id="图层_4">
</g>
<g id="图层_5">
</g>
<g id="图层_6">
</g>
<g id="图层_7">
</g>
</svg>
